<?xml version="1.0" encoding="UTF-8" standalone="no"?>
<svg
   xmlns:dc="http://purl.org/dc/elements/1.1/"
   xmlns:cc="http://creativecommons.org/ns#"
   xmlns:rdf="http://www.w3.org/1999/02/22-rdf-syntax-ns#"
   xmlns:svg="http://www.w3.org/2000/svg"
   xmlns="http://www.w3.org/2000/svg"
   xmlns:sodipodi="http://sodipodi.sourceforge.net/DTD/sodipodi-0.dtd"
   xmlns:inkscape="http://www.inkscape.org/namespaces/inkscape"
   height="32"
   width="32"
   version="1.1"
   id="svg8"
   sodipodi:docname="THESIAS_icon.svg"
   inkscape:version="0.92.4 (5da689c313, 2019-01-14)">
  <metadata
     id="metadata14">
    <rdf:RDF>
      <cc:Work
         rdf:about="">
        <dc:format>image/svg+xml</dc:format>
        <dc:type
           rdf:resource="http://purl.org/dc/dcmitype/StillImage" />
      </cc:Work>
    </rdf:RDF>
  </metadata>
  <defs
     id="defs12" />
  <sodipodi:namedview
     pagecolor="#ffffff"
     bordercolor="#666666"
     borderopacity="1"
     objecttolerance="10"
     gridtolerance="10"
     guidetolerance="10"
     inkscape:pageopacity="0"
     inkscape:pageshadow="2"
     inkscape:window-width="1366"
     inkscape:window-height="704"
     id="namedview10"
     showgrid="false"
     inkscape:zoom="7.375"
     inkscape:cx="16"
     inkscape:cy="16"
     inkscape:window-x="0"
     inkscape:window-y="27"
     inkscape:window-maximized="1"
     inkscape:current-layer="svg8" />
  <circle
     style="fill:#0044aa;fill-rule:evenodd"
     id="circle2"
     r="16"
     cy="16"
     cx="16" />
  <path
     style="fill:#ffffff;fill-rule:evenodd"
     inkscape:connector-curvature="0"
     id="path4"
     d="m 9.7999372,7.14 c -0.09,0.07 -0.171,0.13 -0.246,0.195 -0.198,0.175 -0.397,0.35 -0.59,0.531 -0.153,0.146 -0.298,0.302 -0.445,0.455 -0.012,0.012 -0.022,0.04 -0.018,0.056 0.09,0.348 0.226,0.676 0.408,0.982 0.16,0.268 0.344,0.514 0.558,0.735 0.29,0.3 0.6149998,0.55 0.9709998,0.755 0.155,0.09 0.314,0.17 0.473,0.25 0.507,0.257 1.047,0.401 1.597,0.503 0.375,0.07 0.754,0.12 1.131,0.172 0.496,0.068 0.993,0.123 1.488,0.195 0.73,0.106 1.445,0.272 2.123,0.587 0.746,0.347 1.367,0.854 1.789,1.603 0.281,0.5 0.395,1.045 0.39,1.623 -0.009,1.107 -0.388,2.064 -1.042,2.915 -0.4,0.52 -0.856,0.982 -1.336,1.418 -0.332,0.303 -0.671,0.597 -1.002,0.9 -0.423,0.39 -0.847,0.779 -1.21,1.234 -0.19,0.24 -0.378,0.486 -0.541,0.747 -0.278,0.446 -0.499,0.925 -0.644,1.438 -0.08,0.28 -0.128,0.565 -0.15,0.857 -0.034,0.438 0.009,0.868 0.114,1.292 0.043,0.173 0.045,0.176 0.216,0.207 0.241,0.045 0.482,0.091 0.724,0.13 0.177,0.027 0.355,0.044 0.533,0.064 0.062,0.008 0.125,0.011 0.188,0.016 l 0.037,-0.001 c -10e-4,-0.014 0,-0.028 -0.004,-0.04 -0.054,-0.143 -0.114,-0.284 -0.165,-0.428 -0.109,-0.31 -0.191,-0.628 -0.226,-0.958 a 2.932,2.932 0 0 1 0.303,-1.672 4.005,4.005 0 0 1 0.694,-0.946 c 0.376,-0.395 0.79,-0.741 1.205,-1.086 0.693,-0.577 1.363,-1.18 1.975,-1.852 0.37,-0.407 0.711,-0.837 1.012,-1.302 a 6.405,6.405 0 0 0 0.768,-1.606 4.713,4.713 0 0 0 0.025,-2.718 c -0.146,-0.514 -0.343,-0.997 -0.647,-1.43 -0.402,-0.573 -0.921,-1 -1.516,-1.33 -0.6,-0.335 -1.24,-0.555 -1.899,-0.72 -0.53,-0.134 -1.067,-0.234 -1.608,-0.3 -0.61,-0.074 -1.22,-0.136 -1.83,-0.205 -0.498,-0.056 -0.993,-0.125 -1.474,-0.277 a 3.03,3.03 0 0 1 -1.177,-0.672 c -0.291,-0.272 -0.507,-0.598 -0.662,-0.972 C 9.9469372,8.14 9.8769372,7.776 9.8259372,7.407 c -0.011,-0.082 -0.017,-0.166 -0.027,-0.267 z m 7.0599998,12.826 c -0.219,-0.043 -0.427,-0.08 -0.634,-0.125 -0.532,-0.118 -1.057,-0.26 -1.55,-0.512 a 4.1,4.1 0 0 1 -1.269,-1 c -0.36,-0.426 -0.655,-0.895 -0.809,-1.451 a 3.11,3.11 0 0 1 -0.1,-1.082 4.316,4.316 0 0 1 0.734,-2.066 8.374,8.374 0 0 1 1.08,-1.288 c 0.07,-0.071 0.144,-0.14 0.215,-0.21 0.01,-0.01 0.018,-0.022 0.033,-0.04 l -0.38,-0.059 -0.823,-0.125 c -0.144,-0.022 -0.288,-0.046 -0.432,-0.065 -0.017,-0.002 -0.041,0.017 -0.055,0.032 -0.256,0.298 -0.518,0.59 -0.764,0.897 -0.32,0.398 -0.59,0.834 -0.81,1.304 -0.195,0.419 -0.338,0.855 -0.408,1.317 -0.049,0.323 -0.07,0.649 -0.037,0.975 0.096,0.913 0.367,1.758 0.902,2.496 0.332,0.459 0.741,0.83 1.202,1.14 a 6.87,6.87 0 0 0 1.735,0.823 c 0.263,0.084 0.529,0.156 0.794,0.23 a 0.087,0.087 0 0 0 0.071,-0.015 c 0.427,-0.38 0.852,-0.763 1.277,-1.145 0.008,-0.006 0.014,-0.015 0.027,-0.03 z m -2.116,-9.698 0.644,0.1 0.73,0.113 c 0.085,0.014 0.171,0.03 0.258,0.039 a 0.124,0.124 0 0 0 0.088,-0.028 7.558,7.558 0 0 0 0.781,-0.835 c 0.13,-0.165 0.262,-0.33 0.377,-0.507 0.39,-0.604 0.695,-1.249 0.824,-1.974 a 3.968,3.968 0 0 0 -0.098,-1.86 c -0.011,-0.04 -0.023,-0.06 -0.07,-0.069 -0.268,-0.046 -0.533,-0.106 -0.8,-0.15 -0.22,-0.035 -0.444,-0.053 -0.666,-0.079 L 16.629937,5 c 0.016,0.036 0.025,0.06 0.036,0.081 a 4.384,4.384 0 0 1 0.391,1.24 2.868,2.868 0 0 1 -0.271,1.722 c -0.221,0.445 -0.523,0.822 -0.865,1.17 -0.356,0.36 -0.742,0.684 -1.129,1.007 -0.014,0.012 -0.026,0.025 -0.049,0.048 z m 3.174,11.288 0.426,0.045 c 0.18,0.02 0.36,0.034 0.54,0.062 0.277,0.043 0.555,0.085 0.829,0.146 1.003,0.222 1.784,0.754 2.21,1.777 a 5.76,5.76 0 0 1 0.347,1.159 c 0.003,0.018 0.009,0.036 0.017,0.068 0.057,-0.044 0.11,-0.08 0.158,-0.122 0.2,-0.178 0.399,-0.354 0.594,-0.536 0.141,-0.132 0.274,-0.273 0.414,-0.407 0.047,-0.045 0.056,-0.09 0.039,-0.154 a 3.884,3.884 0 0 0 -1.079,-1.79 5.145,5.145 0 0 0 -1.11,-0.785 c -0.566,-0.31 -1.171,-0.488 -1.791,-0.622 -0.072,-0.015 -0.146,-0.023 -0.216,-0.042 -0.044,-0.012 -0.073,0 -0.104,0.029 l -0.578,0.529 -0.641,0.589 c -0.015,0.013 -0.03,0.028 -0.055,0.054 z m -4.327,-4.378 c 0.05,-0.012 0.1,-0.023 0.148,-0.038 l 3.451,-1.079 c 0.443,-0.138 0.885,-0.275 1.327,-0.414 0.17,-0.053 0.257,-0.192 0.244,-0.334 -0.018,-0.21 -0.088,-0.356 -0.285,-0.395 a 0.346,0.346 0 0 0 -0.162,0.014 c -0.374,0.115 -0.747,0.235 -1.12,0.351 l -2.641,0.824 -1.053,0.327 c -0.167,0.052 -0.27,0.205 -0.247,0.37 0.029,0.223 0.162,0.368 0.338,0.374 z m 7.29,6.496 c -0.032,0.008 -0.07,0.015 -0.107,0.026 l -4.805,1.5 c -0.165,0.052 -0.263,0.19 -0.248,0.352 0.019,0.218 0.133,0.363 0.304,0.378 a 0.419,0.419 0 0 0 0.156,-0.022 c 1.325,-0.412 2.649,-0.826 3.973,-1.24 0.276,-0.086 0.552,-0.17 0.827,-0.257 0.154,-0.049 0.256,-0.18 0.245,-0.33 -0.016,-0.198 -0.089,-0.349 -0.266,-0.394 -0.023,-0.007 -0.048,-0.008 -0.08,-0.013 z m -10.13,-15.764 c 0.015,0.044 0.035,0.136 0.078,0.213 0.07,0.126 0.213,0.173 0.354,0.129 l 2.317,-0.724 c 0.829,-0.259 1.658,-0.518 2.488,-0.775 0.141,-0.044 0.246,-0.127 0.262,-0.287 0.018,-0.18 -0.065,-0.421 -0.301,-0.448 a 0.332,0.332 0 0 0 -0.132,0.018 l -4.816,1.503 c -0.16,0.05 -0.25,0.168 -0.25,0.371 z m 6.915,6.463 c -0.01,-0.207 -0.1,-0.363 -0.262,-0.395 a 0.406,0.406 0 0 0 -0.191,0.012 c -0.486,0.148 -0.97,0.301 -1.456,0.453 l -1.832,0.57 a 0.34,0.34 0 0 0 -0.244,0.386 c 0.037,0.23 0.174,0.37 0.36,0.35 0.095,-0.012 0.188,-0.05 0.282,-0.079 l 2.382,-0.744 0.718,-0.224 a 0.326,0.326 0 0 0 0.243,-0.329 z m 0.332,1.89 c -0.064,0.017 -0.112,0.026 -0.159,0.04 l -3.02,0.944 c -0.083,0.026 -0.167,0.05 -0.25,0.077 -0.185,0.06 -0.275,0.232 -0.227,0.428 0.037,0.155 0.111,0.274 0.271,0.301 a 0.349,0.349 0 0 0 0.156,-0.013 c 0.384,-0.117 0.767,-0.238 1.15,-0.358 0.713,-0.222 1.425,-0.445 2.137,-0.665 0.132,-0.041 0.232,-0.12 0.254,-0.265 0.025,-0.161 -0.017,-0.31 -0.146,-0.413 -0.05,-0.039 -0.116,-0.053 -0.166,-0.075 z m 2.783,9.187 c -0.014,-0.216 -0.108,-0.385 -0.303,-0.406 a 0.32,0.32 0 0 0 -0.127,0.013 c -1.108,0.345 -2.216,0.69 -3.324,1.037 -0.178,0.056 -0.265,0.232 -0.22,0.42 0.038,0.16 0.12,0.272 0.277,0.308 a 0.18,0.18 0 0 0 0.09,0.002 l 3.107,-0.97 c 0.091,-0.029 0.183,-0.056 0.275,-0.086 a 0.329,0.329 0 0 0 0.225,-0.318 z m -0.997,-2.72 c -0.03,0.008 -0.07,0.015 -0.109,0.027 l -3.281,1.024 c -0.16,0.05 -0.26,0.19 -0.248,0.346 0.017,0.214 0.127,0.361 0.295,0.382 a 0.416,0.416 0 0 0 0.168,-0.021 c 0.885,-0.275 1.77,-0.553 2.654,-0.83 0.211,-0.065 0.423,-0.13 0.633,-0.197 0.154,-0.05 0.247,-0.177 0.234,-0.335 -0.016,-0.206 -0.096,-0.34 -0.268,-0.385 -0.022,-0.006 -0.045,-0.006 -0.078,-0.01 z m -7.622,-13.562 c 0.108,-0.032 0.213,-0.061 0.318,-0.094 1.027,-0.32 2.054,-0.643 3.082,-0.964 0.205,-0.065 0.288,-0.23 0.232,-0.448 -0.035,-0.139 -0.107,-0.239 -0.242,-0.27 a 0.36,0.36 0 0 0 -0.18,0.006 c -0.91,0.281 -1.821,0.566 -2.732,0.85 -0.195,0.06 -0.389,0.122 -0.584,0.183 a 0.33,0.33 0 0 0 -0.226,0.36 c 0.017,0.132 0.054,0.26 0.18,0.325 0.047,0.024 0.1,0.034 0.152,0.052 z m -0.983,-2.7 c 0.019,0.133 0.055,0.278 0.207,0.352 a 0.322,0.322 0 0 0 0.245,0.007 l 2.365,-0.74 0.923,-0.29 c 0.194,-0.06 0.278,-0.228 0.225,-0.435 -0.036,-0.141 -0.104,-0.25 -0.245,-0.28 a 0.382,0.382 0 0 0 -0.186,0.01 c -0.622,0.192 -1.243,0.388 -1.864,0.582 l -1.425,0.444 c -0.155,0.049 -0.246,0.17 -0.245,0.35 z" />
</svg>
